<svg xmlns="http://www.w3.org/2000/svg" width="168" height="51" viewBox="0 0 168 51"><g><g><g><path fill="#eb3c36" d="M34.893 39.123L20.997 25.66l2.501-.1 1.977-.085a15.793 15.793 0 0 0 1.814-.124 4.57 4.57 0 0 0 2.632-1.42 4.362 4.362 0 0 0 1.15-2.617v-.394a4.091 4.091 0 0 0-.648-2.239 4.254 4.254 0 0 0-2.03-1.628 4.377 4.377 0 0 0-1.336-.27H16.821v1.96l-4.956-4.076 4.933-3.983v1.96c1.799 0 8.013-.069 10.568.101a6.832 6.832 0 0 1 2.517.718 7.866 7.866 0 0 1 3.62 3.497 7.565 7.565 0 0 1 .81 3.983 8.153 8.153 0 0 1-.1.873 7.488 7.488 0 0 1-2.37 4.176 7.164 7.164 0 0 1-4.3 1.799c-.37.023-.74.023-1.111 0h-.579l9.943 11.332zM25.089 0C11.233 0 0 11.233 0 25.089c0 13.856 11.233 25.088 25.089 25.088 13.856 0 25.088-11.232 25.088-25.088C50.177 11.233 38.945 0 25.09 0z"/></g><g><path fill="#110f0f" d="M61.965 20.519v-2.417h-1.93v15.864h1.93V25.15c0-3.975 2.563-5.403 4.964-5.403h.232v-1.86h-.232a5.404 5.404 0 0 0-4.964 2.632z"/></g><g><path fill="#110f0f" d="M70.202 25.104a6.044 6.044 0 0 1 6.176-5.48c3.088 0 5.403 2.192 5.805 5.48zm6.176-7.349a7.943 7.943 0 0 0-8.19 7.72v.556a8.013 8.013 0 0 0 7.796 8.22h.517a7.72 7.72 0 0 0 6.87-3.596l.101-.17-.162-.093-1.359-.772-.177-.108-.093.178a5.697 5.697 0 0 1-5.149 2.732 6.106 6.106 0 0 1-6.33-5.403h13.942v-.958c.054-5.38-3.976-8.306-7.766-8.306z"/></g><g><path fill="#110f0f" d="M90.96 18.102v-4.384l-.247.07-1.544.462-.139.047v3.805h-3.396v1.9h3.396v9.842c0 2.864 1.42 4.253 4.346 4.253a14.081 14.081 0 0 0 2.054-.17h.162v-1.79h-.209c-.64.054-1.312.108-1.89.108-1.66 0-2.502-.37-2.502-2.416V20h4.632v-1.899H90.99z"/></g><g><path fill="#110f0f" d="M101.127 20.519v-2.417h-1.938v15.864h1.938V25.15c0-3.975 2.563-5.403 4.964-5.403h.193v-1.86h-.193a5.404 5.404 0 0 0-4.964 2.632z"/></g><g><path fill="#110f0f" d="M121.97 26.015a6.315 6.315 0 1 1 0-.139zm.2-7.913h-.2v3.011a7.58 7.58 0 0 0-6.438-3.358 8.252 8.252 0 0 0 0 16.505 7.62 7.62 0 0 0 6.438-3.328v3.034h1.96V18.102z"/></g><g><path fill="#110f0f" d="M141.539 29.219l-.178-.108-.092.177a5.975 5.975 0 0 1-5.404 3.088 6.384 6.384 0 0 1 0-12.768 5.635 5.635 0 0 1 5.288 3.088l.093.193.177-.108 1.266-.772.155-.093-.078-.154a7.357 7.357 0 0 0-6.9-4.069 8.252 8.252 0 0 0 0 16.505 7.79 7.79 0 0 0 7.024-4.022l.085-.162-.155-.093z"/></g><g><path fill="#110f0f" d="M147.043 25.104a6.044 6.044 0 0 1 6.176-5.48c3.088 0 5.403 2.192 5.805 5.48zm6.176-7.349a7.943 7.943 0 0 0-8.19 7.72v.556a8.013 8.013 0 0 0 7.82 8.205h.532a7.766 7.766 0 0 0 6.893-3.581l.1-.17-.169-.093-1.351-.772-.178-.108-.092.178a5.697 5.697 0 0 1-5.195 2.732 6.106 6.106 0 0 1-6.33-5.403h13.964v-.958c.031-5.38-3.998-8.306-7.804-8.306z"/></g><g><path fill="#eb3c36" d="M163.64 31.504a1.93 1.93 0 1 1 3.86 0 1.93 1.93 0 0 1-3.86 0z"/></g></g></g></svg>